<svg width="56" height="56" viewBox="0 0 56 56" fill="none" xmlns="http://www.w3.org/2000/svg">
<circle cx="28" cy="28" r="28" fill="black" fill-opacity="0.5"/>
<path d="M22.8889 41.4445C23.6253 41.4445 24.2222 40.8475 24.2222 40.1112C24.2222 39.3748 23.6253 38.7778 22.8889 38.7778C22.1525 38.7778 21.5555 39.3748 21.5555 40.1112C21.5555 40.8475 22.1525 41.4445 22.8889 41.4445Z" fill="white" stroke="white" stroke-width="2" stroke-linecap="round" stroke-linejoin="round"/>
<path d="M35.3333 41.4445C36.0697 41.4445 36.6667 40.8475 36.6667 40.1112C36.6667 39.3748 36.0697 38.7778 35.3333 38.7778C34.597 38.7778 34 39.3748 34 40.1112C34 40.8475 34.597 41.4445 35.3333 41.4445Z" fill="white" stroke="white" stroke-width="2" stroke-linecap="round" stroke-linejoin="round"/>
<path d="M12.6666 15.6667H17.5151L20.7636 31.536C20.8744 32.0816 21.178 32.5718 21.6212 32.9206C22.0644 33.2694 22.619 33.4548 23.1878 33.4441H34.9697C35.5385 33.4548 36.0931 33.2694 36.5363 32.9206C36.9795 32.5718 37.2831 32.0816 37.3939 31.536L39.3333 21.5925H18.7272" stroke="white" stroke-width="2" stroke-linecap="round" stroke-linejoin="round"/>
</svg>
